# xmcd CD database file
#
# Track frame offsets:
#	150
#	17949
#	37289
#	53946
#	70009
#	91840
#	106320
#	125570
#	145355
#	166796
#	180530
#	203242
#
# Disc length: 3012 seconds
#
# Revision: 2
# Processed by: cddbd v1.4PL0 Copyright (c) Steve Scherf et al.
# Submitted via: CDex 1.51
#
DISCID=a90bc20c
DTITLE=The Mudsliders - Spirit's Gonna Rise
DYEAR=2001
DGENRE=Blues
TTITLE0=Car Keys
TTITLE1=Outskirts Of Town
TTITLE2=Ain't That Lovin' You
TTITLE3=Angry Housewife Blues
TTITLE4=Why Don't You Do Right?
TTITLE5=Sally Sue Brown
TTITLE6=Girlish Days
TTITLE7=Talk To Your Daughter
TTITLE8=Blue Light Boogie
TTITLE9=Wrong Woman
TTITLE10=Love With A Feeling
TTITLE11=Take Out Some Insurance
EXTD=YEAR: 2001
EXTT0=
EXTT1=
EXTT2=
EXTT3=
EXTT4=
EXTT5=
EXTT6=
EXTT7=
EXTT8=
EXTT9=
EXTT10=
EXTT11=
PLAYORDER=
